# xmcd CD database file
#
# Track frame offsets:
#	150
#	14021
#	27194
#	37386
#	47243
#	57398
#	71323
#	81832
#	93185
#	105362
#	116863
#	125798
#
# Disc length: 1821 seconds
#
# Revision: 1
# Processed by: cddbd v1.5.2PL0 Copyright (c) Steve Scherf et al.
# Submitted via: CDex 1.51
#
DISCID=a7071b0c
DTITLE=Barbara Lynn - Here Is Barbara Lynn [2012 Remaster]
DYEAR=1968
DGENRE=Soul
TTITLE0=You'll Lose A Good Thing
TTITLE1=Take Your Love And Run
TTITLE2=Maybe We Can Slip Away
TTITLE3=Sure Is Worth It
TTITLE4=Only You Know How To Love Me
TTITLE5=I'll Suffer
TTITLE6=You're Losing Me
TTITLE7=Sufferin' City
TTITLE8=Multiplying Pain
TTITLE9=Why Can't You Love Me
TTITLE10=Mix It Up Baby
TTITLE11=This Is The Thanks I Get
EXTD=YEAR: 1968
EXTT0=
EXTT1=
EXTT2=
EXTT3=
EXTT4=
EXTT5=
EXTT6=
EXTT7=
EXTT8=
EXTT9=
EXTT10=
EXTT11=
PLAYORDER=
